# xmcd CD database file
#
# Track frame offsets:
#	150
#	21322
#	39830
#	58987
#	84000
#	101150
#	123122
#	135795
#	154835
#
# Disc length: 2325 seconds
#
# Revision: 22
# Processed by: cddbd v1.5.2PL0 Copyright (c) Steve Scherf et al.
# Submitted via: CDex 1.70beta2
#
DISCID=64091309
DTITLE=山崎まさよし - BLUE PERIOD 【Disc1】
DYEAR=2005
DGENRE=Pop
TTITLE0=月明かりに照らされて
TTITLE1=中華料理
TTITLE2=セロリ
TTITLE3=One more time, One more chance
TTITLE4=アドレナリン
TTITLE5=振り向かない
TTITLE6=ガムシャラ バタフライ
TTITLE7=水のない水槽
TTITLE8=僕はここにいる
EXTD=YEAR: 2005
EXTT0=
EXTT1=
EXTT2=
EXTT3=
EXTT4=
EXTT5=
EXTT6=
EXTT7=
EXTT8=
PLAYORDER=
